<?xml version="1.0" standalone="no"?>
<!DOCTYPE svg PUBLIC "-//W3C//DTD SVG 20010904//EN"
 "http://www.w3.org/TR/2001/REC-SVG-20010904/DTD/svg10.dtd">
<svg version="1.0" xmlns="http://www.w3.org/2000/svg"
 width="512.000000pt" height="512.000000pt" viewBox="0 0 512.000000 512.000000"
 preserveAspectRatio="xMidYMid meet">
<metadata>
Created by potrace 1.16, written by Peter Selinger 2001-2019
</metadata>
<g transform="translate(0.000000,512.000000) scale(0.100000,-0.100000)"
fill="#ff0000" stroke="none">
<path d="M1700 5111 c-94 -29 -177 -101 -219 -190 -26 -56 -26 -58 -29 -323
l-3 -268 -572 0 -573 0 -53 -26 c-90 -45 -130 -131 -110 -234 9 -45 20 -64 58
-101 59 -59 102 -69 296 -69 l145 0 0 -25 c0 -39 310 -3556 316 -3595 19 -107
115 -220 219 -259 55 -21 65 -21 1385 -21 1320 0 1330 0 1385 21 104 39 200
152 219 259 7 40 316 3556 316 3595 l0 25 145 0 c194 0 237 10 296 69 38 37
49 56 58 101 20 103 -20 189 -110 234 l-53 26 -573 0 -572 0 -3 268 c-3 265
-3 267 -29 323 -33 69 -91 129 -161 166 l-53 28 -850 2 c-467 1 -861 -2 -875
-6z m1550 -596 l0 -185 -690 0 -690 0 0 185 0 185 690 0 690 0 0 -185z m805
-652 c-3 -21 -71 -785 -150 -1698 -80 -913 -147 -1679 -150 -1702 l-6 -43
-1189 0 -1189 0 -6 43 c-3 23 -70 789 -150 1702 -79 913 -146 1677 -149 1698
l-4 37 1499 0 1499 0 -5 -37z"/>
</g>
</svg>
