<?xml version="1.0" standalone="no"?>
<!DOCTYPE svg PUBLIC "-//W3C//DTD SVG 20010904//EN"
 "http://www.w3.org/TR/2001/REC-SVG-20010904/DTD/svg10.dtd">
<svg version="1.0" xmlns="http://www.w3.org/2000/svg"
 width="512.000000pt" height="512.000000pt" viewBox="0 0 512.000000 512.000000"
 preserveAspectRatio="xMidYMid meet">
<metadata>
Created by potrace 1.16, written by Peter Selinger 2001-2019
</metadata>
<g transform="translate(0.000000,512.000000) scale(0.100000,-0.100000)"
fill="#e1e1e1" stroke="none">
<path d="M746 2979 c-65 -15 -153 -69 -206 -125 -202 -213 -133 -560 135 -686
51 -23 84 -31 148 -35 184 -12 335 74 414 235 37 75 38 78 38 191 0 109 -2
120 -31 182 -55 116 -142 192 -262 229 -68 21 -168 25 -236 9z"/>
<path d="M2426 2970 c-274 -87 -385 -427 -216 -663 169 -235 531 -235 700 0
137 192 93 467 -97 603 -108 77 -260 101 -387 60z"/>
<path d="M4129 2967 c-120 -41 -199 -112 -253 -226 -29 -62 -31 -73 -31 -182
0 -113 1 -116 38 -191 79 -161 230 -247 414 -235 369 23 537 482 268 736 -82
78 -165 113 -279 118 -76 3 -102 0 -157 -20z"/>
</g>
</svg>
