<?xml version="1.0" standalone="no"?>
<!DOCTYPE svg PUBLIC "-//W3C//DTD SVG 20010904//EN"
 "http://www.w3.org/TR/2001/REC-SVG-20010904/DTD/svg10.dtd">
<svg version="1.0" xmlns="http://www.w3.org/2000/svg"
 width="512.000000pt" height="512.000000pt" viewBox="0 0 512.000000 512.000000"
 preserveAspectRatio="xMidYMid meet">

<g transform="translate(0.000000,512.000000) scale(0.100000,-0.100000)"
fill="#232323" stroke="none">
<path d="M2487 5105 c-318 -61 -577 -256 -722 -543 l-34 -69 -828 -258 c-455
-142 -840 -265 -855 -273 -44 -25 -60 -80 -37 -125 6 -12 148 -160 316 -328
l305 -306 -196 -328 c-147 -246 -196 -336 -196 -360 0 -66 17 -76 330 -180
l290 -97 0 -780 c0 -716 1 -782 17 -809 9 -15 24 -31 32 -35 109 -45 1638
-614 1650 -614 9 0 429 138 933 306 829 276 920 308 943 336 l25 30 0 803 0
804 158 50 c86 27 222 70 303 95 80 25 155 55 167 66 26 25 36 61 27 98 -4 17
-111 132 -308 330 l-302 302 297 298 c163 163 301 307 307 319 27 54 1 114
-61 137 -24 9 -329 104 -678 211 -844 260 -757 229 -771 273 -17 56 -74 166
-118 231 -134 197 -347 343 -586 402 -108 27 -305 33 -408 14z m373 -210 c275
-71 505 -302 576 -580 25 -98 25 -295 0 -390 -108 -408 -506 -664 -916 -591
-279 50 -526 262 -615 530 -158 472 135 955 633 1046 68 13 246 4 322 -15z
m-1197 -714 c-11 -140 30 -358 88 -473 11 -21 19 -39 19 -42 0 -2 -221 -78
-490 -168 l-490 -163 -250 250 -250 250 678 212 c372 116 682 212 689 212 9 1
11 -19 6 -78z m2604 -173 l563 -173 -250 -250 -250 -250 -402 134 c-222 73
-404 135 -406 136 -2 2 11 32 29 66 65 129 96 251 106 416 6 100 7 104 27 99
12 -3 274 -83 583 -178z m-2312 -592 c300 -301 750 -379 1130 -197 96 46 235
141 283 193 l23 26 320 -106 c175 -59 319 -109 319 -112 0 -3 -331 -115 -735
-250 l-735 -245 -735 245 c-404 135 -735 247 -735 250 0 4 691 240 788 269 1
1 36 -32 77 -73z m-333 -588 l788 -263 -156 -260 c-86 -143 -157 -262 -159
-264 -2 -1 -364 117 -804 264 l-801 267 13 22 c6 13 77 132 157 265 105 175
149 240 160 236 8 -3 369 -123 802 -267z m2960 25 l248 -248 -843 -264 c-463
-145 -846 -266 -852 -267 -10 -3 -401 482 -398 494 2 7 1560 530 1583 531 8 1
126 -110 262 -246z m-1727 -760 c197 -249 201 -251 290 -226 28 8 285 89 572
179 287 90 527 164 533 164 7 0 10 -234 10 -719 l0 -719 -787 -263 c-434 -144
-794 -264 -800 -267 -10 -3 -13 210 -13 1044 0 586 4 1044 9 1039 4 -6 88
-110 186 -232z m-399 -1840 c-2 -3 -316 112 -698 255 l-693 259 -3 702 c-1
385 -1 701 1 701 1 0 238 -79 527 -175 289 -96 535 -175 547 -175 54 0 73 22
196 227 l122 203 3 -997 c1 -548 0 -998 -2 -1000z"/>
<path d="M2253 4518 c-28 -32 -34 -54 -22 -86 5 -15 81 -98 167 -184 l156
-158 -167 -168 c-182 -183 -191 -199 -146 -256 17 -21 29 -26 67 -26 l46 0
163 162 163 162 163 -162 c159 -158 164 -162 206 -162 53 0 91 34 91 81 0 29
-20 53 -167 201 l-167 168 162 163 c151 152 162 166 162 201 0 50 -36 86 -86
86 -35 0 -49 -11 -201 -162 l-163 -162 -163 162 c-157 155 -165 162 -203 162
-29 0 -46 -6 -61 -22z"/>
</g>
</svg>
