<?xml version="1.0" standalone="no"?>
<!DOCTYPE svg PUBLIC "-//W3C//DTD SVG 20010904//EN"
 "http://www.w3.org/TR/2001/REC-SVG-20010904/DTD/svg10.dtd">
<svg version="1.0" xmlns="http://www.w3.org/2000/svg"
 width="512.000000pt" height="512.000000pt" viewBox="0 0 512.000000 512.000000"
 preserveAspectRatio="xMidYMid meet">

<g transform="translate(0.000000,512.000000) scale(0.100000,-0.100000)"
fill="#e1e1e1" stroke="none">
<path d="M2510 4901 c-14 -4 -39 -15 -55 -24 -17 -8 -330 -316 -697 -684 -608
-609 -667 -672 -678 -713 -43 -163 89 -305 250 -270 l55 12 475 474 c261 261
479 474 483 474 4 0 7 -614 7 -1365 0 -1324 1 -1367 19 -1403 85 -166 315
-160 385 10 14 33 16 190 16 1398 0 748 3 1360 7 1360 4 0 222 -213 483 -474
l475 -474 55 -12 c161 -35 293 107 250 270 -11 41 -70 104 -678 713 -376 377
-683 677 -704 688 -44 23 -112 32 -148 20z"/>
<path d="M368 1698 c-21 -5 -58 -28 -82 -50 -77 -67 -76 -61 -76 -685 0 -384
3 -558 12 -591 16 -64 86 -134 150 -150 35 -9 582 -12 2191 -12 2409 0 2213
-6 2285 75 23 27 44 63 51 90 15 61 15 1109 0 1170 -7 27 -28 63 -51 90 -98
112 -275 88 -342 -46 l-26 -53 0 -448 0 -448 -1920 0 -1920 0 0 449 0 449 -28
53 c-46 89 -149 134 -244 107z"/>
</g>
</svg>
