<?xml version="1.0" standalone="no"?>
<!DOCTYPE svg PUBLIC "-//W3C//DTD SVG 20010904//EN"
 "http://www.w3.org/TR/2001/REC-SVG-20010904/DTD/svg10.dtd">
<svg version="1.0" xmlns="http://www.w3.org/2000/svg"
 width="512.000000pt" height="512.000000pt" viewBox="0 0 512.000000 512.000000"
 preserveAspectRatio="xMidYMid meet">
<metadata>
Created by potrace 1.16, written by Peter Selinger 2001-2019
</metadata>
<g transform="translate(0.000000,512.000000) scale(0.100000,-0.100000)"
fill="#e1e1e1" stroke="none">
<path d="M335 4891 c-49 -23 -89 -64 -109 -113 -14 -33 -16 -269 -16 -2220 0
-2104 1 -2184 19 -2223 23 -49 64 -89 113 -109 56 -24 1180 -24 1236 0 155 64
178 285 40 380 l-41 29 -469 3 -468 3 0 1919 0 1919 468 3 469 3 41 29 c109
75 122 247 26 338 -63 59 -50 58 -686 58 -546 0 -586 -2 -623 -19z"/>
<path d="M2725 4051 c-16 -4 -43 -15 -60 -24 -42 -22 -1349 -1335 -1369 -1374
-23 -45 -21 -144 3 -191 24 -45 1334 -1354 1376 -1375 86 -41 175 -27 245 42
66 64 84 133 58 225 -10 35 -80 110 -482 513 l-470 473 1364 2 1365 3 45 25
c24 14 58 45 75 68 27 40 30 51 30 122 0 71 -3 82 -30 122 -17 23 -51 54 -75
68 l-45 25 -1365 3 -1364 2 470 473 c496 498 494 495 494 583 0 79 -54 165
-123 197 -42 19 -104 27 -142 18z"/>
</g>
</svg>
