<?xml version="1.0" standalone="no"?>
<!DOCTYPE svg PUBLIC "-//W3C//DTD SVG 20010904//EN"
 "http://www.w3.org/TR/2001/REC-SVG-20010904/DTD/svg10.dtd">
<svg version="1.0" xmlns="http://www.w3.org/2000/svg"
 width="512.000000pt" height="512.000000pt" viewBox="0 0 512.000000 512.000000"
 preserveAspectRatio="xMidYMid meet">
<metadata>
Created by potrace 1.16, written by Peter Selinger 2001-2019
</metadata>
<g transform="translate(0.000000,512.000000) scale(0.100000,-0.100000)"
fill="#e1e1e1" stroke="none">
<path d="M335 4891 c-49 -23 -89 -64 -109 -113 -14 -33 -16 -269 -16 -2220 0
-2104 1 -2184 19 -2223 23 -49 64 -89 113 -109 56 -24 1180 -24 1236 0 155 64
178 285 40 380 l-41 29 -469 3 -468 3 0 1919 0 1919 468 3 469 3 41 29 c109
75 122 247 26 338 -63 59 -50 58 -686 58 -546 0 -586 -2 -623 -19z"/>
<path d="M3358 4046 c-127 -35 -193 -171 -143 -294 11 -25 162 -183 483 -504
l467 -468 -1351 0 c-1480 0 -1403 3 -1467 -58 -46 -44 -67 -94 -67 -162 0
-100 58 -181 149 -209 28 -8 405 -11 1387 -11 l1349 0 -472 -472 c-514 -516
-499 -498 -491 -609 5 -75 43 -133 111 -168 61 -31 146 -32 203 -3 58 30 1359
1336 1379 1384 19 48 19 128 0 176 -19 45 -1321 1354 -1375 1381 -50 26 -107
32 -162 17z"/>
</g>
</svg>
