<?xml version="1.0" standalone="no"?>
<!DOCTYPE svg PUBLIC "-//W3C//DTD SVG 20010904//EN"
 "http://www.w3.org/TR/2001/REC-SVG-20010904/DTD/svg10.dtd">
<svg version="1.0" xmlns="http://www.w3.org/2000/svg"
 width="512.000000pt" height="512.000000pt" viewBox="0 0 512.000000 512.000000"
 preserveAspectRatio="xMidYMid meet">
	<metadata>
	</metadata>
	<g transform="translate(0.000000,512.000000) scale(0.100000,-0.100000)"
	fill="#e1e1e1" stroke="none">
		<path d="M2457 5104 c-300 -65 -546 -251 -688 -520 l-45 -87 -837 -261 c-643
-201 -842 -267 -861 -285 -21 -20 -26 -34 -26 -75 l0 -50 310 -311 c171 -171
310 -314 310 -318 0 -4 -84 -145 -186 -314 -103 -170 -191 -320 -196 -335 -13
-36 6 -94 37 -114 12 -8 148 -57 301 -108 l279 -93 5 -791 5 -792 25 -24 c33
-32 1617 -626 1669 -626 53 0 1835 596 1869 625 l27 23 5 813 5 813 302 96
c344 108 353 113 353 194 l0 50 -302 303 -302 303 302 303 302 303 0 51 c0 40
-5 55 -24 74 -18 19 -173 70 -687 228 -365 113 -693 214 -727 226 l-64 21 -28
72 c-120 310 -405 544 -738 608 -94 18 -306 17 -395 -2z m376 -210 c149 -33
329 -139 421 -247 133 -157 196 -326 196 -527 0 -350 -216 -644 -560 -760
-100 -34 -298 -39 -410 -11 -299 74 -526 304 -595 601 -20 86 -19 253 1 343
65 287 303 529 589 598 93 22 264 24 358 3z m-1173 -766 c0 -164 23 -278 85
-422 9 -21 15 -39 13 -41 -2 -1 -220 -74 -484 -162 l-482 -161 -243 244 c-134
134 -241 245 -239 247 8 6 1323 416 1338 416 9 1 12 -30 12 -121z m2615 -128
c292 -90 532 -165 535 -167 2 -2 -105 -113 -239 -247 l-243 -244 -392 130
c-215 72 -395 134 -399 138 -5 4 7 38 26 76 64 128 97 266 97 409 l0 94 43
-13 c23 -7 281 -86 572 -176z m-2316 -597 c136 -134 315 -229 503 -267 45 -9
127 -16 198 -16 264 0 486 84 681 259 l56 50 307 -102 c168 -56 306 -104 306
-107 0 -3 -326 -114 -725 -247 l-725 -241 -725 241 c-399 133 -725 244 -725
247 0 5 743 257 762 259 5 1 44 -34 87 -76z m2851 -796 c-3 -2 -382 -122 -842
-267 l-838 -263 -19 24 c-10 13 -98 123 -194 244 -97 120 -175 221 -173 222 2
2 358 122 792 267 l789 264 245 -244 c134 -134 242 -245 240 -247z m-3205 220
c435 -145 790 -266 790 -269 0 -14 -301 -508 -310 -508 -10 0 -1577 520 -1583
526 -5 3 301 514 308 514 3 0 361 -119 795 -263z m1234 -727 c95 -118 184
-223 199 -232 15 -10 38 -18 52 -18 18 0 1080 327 1156 357 12 4 14 -97 12
-713 l-3 -717 -790 -264 c-434 -144 -793 -263 -797 -263 -5 0 -8 467 -8 1037
0 570 2 1034 4 1032 2 -2 81 -101 175 -219z m-381 -1348 l-3 -499 -697 261
-698 261 0 693 c0 380 3 692 7 692 4 0 245 -79 535 -176 551 -183 561 -185
604 -145 11 9 71 104 134 209 l115 193 3 -495 c1 -272 1 -719 0 -994z"/>
		<path d="M2834 4248 l-273 -271 -76 71 c-72 69 -77 72 -124 72 -69 0 -101 -33
-101 -103 l0 -50 123 -124 124 -123 54 0 53 0 323 323 323 323 0 50 c0 72 -32
104 -103 104 l-50 0 -273 -272z"/>
	</g>
</svg>
