<?xml version="1.0" standalone="no"?>
<!DOCTYPE svg PUBLIC "-//W3C//DTD SVG 20010904//EN"
 "http://www.w3.org/TR/2001/REC-SVG-20010904/DTD/svg10.dtd">
<svg version="1.0" xmlns="http://www.w3.org/2000/svg"
 width="512.000000pt" height="512.000000pt" viewBox="0 0 512.000000 512.000000"
 preserveAspectRatio="xMidYMid meet">

<g transform="translate(0.000000,512.000000) scale(0.100000,-0.100000)"
fill="#e1e1e1" stroke="none">
<path d="M4430 4901 c-74 -24 -119 -63 -145 -123 -12 -31 -15 -88 -15 -324 l0
-286 -97 89 c-135 122 -181 159 -311 247 -284 192 -663 333 -1017 377 -145 19
-455 16 -596 -4 -250 -37 -479 -107 -707 -217 -705 -341 -1178 -993 -1299
-1790 -23 -156 -23 -472 1 -630 65 -435 241 -839 507 -1167 304 -373 756 -663
1222 -782 652 -167 1335 -54 1887 315 637 424 1030 1137 1043 1890 2 105 0
124 -20 159 -41 77 -105 115 -193 115 -61 0 -115 -25 -157 -74 -42 -47 -50
-80 -57 -232 -17 -379 -141 -736 -363 -1047 -82 -114 -280 -316 -395 -403
-898 -676 -2164 -459 -2781 476 -634 961 -283 2268 748 2783 290 144 535 201
865 201 329 0 575 -57 863 -200 190 -94 315 -183 471 -334 l98 -95 -319 -5
-320 -5 -41 -28 c-60 -39 -93 -94 -99 -164 -7 -80 31 -154 102 -198 l48 -30
669 -3 668 -3 0 666 c0 719 1 706 -53 763 -47 51 -149 82 -207 63z"/>
</g>
</svg>
