<?xml version="1.0" standalone="no"?>
<!DOCTYPE svg PUBLIC "-//W3C//DTD SVG 20010904//EN"
 "http://www.w3.org/TR/2001/REC-SVG-20010904/DTD/svg10.dtd">
<svg version="1.0" xmlns="http://www.w3.org/2000/svg"
 width="357.000000pt" height="357.000000pt" viewBox="0 0 357.000000 357.000000"
 preserveAspectRatio="xMidYMid meet">

<g transform="translate(0.000000,357.000000) scale(0.100000,-0.100000)"
fill="#e1e1e1" stroke="none">
<path d="M1730 3438 c-28 -7 -207 -182 -853 -826 -581 -581 -824 -829 -838
-860 -63 -129 69 -263 208 -211 16 5 362 344 783 764 l755 755 750 -751 c413
-413 762 -757 777 -765 36 -19 102 -18 144 2 69 33 103 135 69 208 -8 17 -385
401 -837 853 -911 910 -855 860 -958 831z"/>
<path d="M1730 2158 c-28 -7 -207 -182 -853 -826 -581 -581 -824 -829 -838
-860 -63 -129 69 -263 208 -211 16 5 362 344 783 764 l755 755 750 -751 c413
-413 762 -757 777 -765 36 -19 102 -18 144 2 69 33 103 135 69 208 -8 17 -385
401 -837 853 -911 910 -855 860 -958 831z"/>
</g>
</svg>
